<svg width="26" height="27" viewBox="0 0 26 27" fill="none" xmlns="http://www.w3.org/2000/svg">
<path d="M13.0001 21.9314C12.7425 21.9314 12.5004 21.8095 12.3477 21.6031C12.0755 21.2368 5.6875 12.569 5.6875 8.11888C5.6875 4.08722 8.96834 0.806396 13 0.806396C17.0324 0.806396 20.3125 4.08722 20.3125 8.11888C20.3125 12.569 13.9244 21.2368 13.6523 21.6031C13.4996 21.8095 13.2575 21.9314 13 21.9314H13.0001ZM13.0001 2.43141C9.86376 2.43141 7.31255 4.9826 7.31255 8.1189C7.31255 11.0236 10.9632 16.8266 13.0001 19.7279C15.0369 16.8257 18.6876 11.0211 18.6876 8.1189C18.6876 4.9826 16.1354 2.43141 13.0001 2.43141Z" fill="black"/>
<path d="M12.6387 11.8203C10.8463 11.8203 9.38867 10.3627 9.38867 8.57032C9.38867 6.77794 10.8463 5.32031 12.6387 5.32031C14.431 5.32031 15.8886 6.77794 15.8886 8.57032C15.8886 10.3627 14.431 11.8203 12.6387 11.8203ZM12.6387 6.94532C11.7425 6.94532 11.0137 7.6742 11.0137 8.57032C11.0137 9.46644 11.7425 10.1953 12.6387 10.1953C13.5348 10.1953 14.2636 9.46644 14.2636 8.57032C14.2636 7.6742 13.5348 6.94532 12.6387 6.94532Z" fill="black"/>
<path d="M13 26.8066C7.87939 26.8066 2.4375 25.2206 2.4375 22.2801C2.4375 20.8216 3.80733 19.559 6.29362 18.7238C6.71946 18.5832 7.18013 18.8099 7.32229 19.2356C7.46521 19.6605 7.23615 20.1221 6.81121 20.265C4.78233 20.9451 4.0625 21.7763 4.0625 22.2801C4.0625 23.4631 7.54408 25.1815 13 25.1815C18.4559 25.1815 21.9375 23.4631 21.9375 22.2801C21.9375 21.7762 21.2168 20.9451 19.188 20.2642C18.7631 20.1204 18.5332 19.6605 18.6763 19.2348C18.8201 18.8099 19.2808 18.5816 19.7057 18.723C22.1927 19.5589 23.5625 20.8225 23.5625 22.2801C23.5625 25.2205 18.1206 26.8065 13 26.8065V26.8066Z" fill="black"/>
</svg>
