<svg width="26" height="27" viewBox="0 0 26 27" fill="none" xmlns="http://www.w3.org/2000/svg">
<path d="M24.4724 23.1554H1.52741C0.685704 23.1554 0 22.477 0 21.6444V5.37622C0 4.54357 0.68575 3.86523 1.52741 3.86523H24.4724C25.3143 3.86523 26 4.54361 26 5.37622V21.6444C26 22.4772 25.3142 23.1556 24.4726 23.1556L24.4724 23.1554ZM1.62491 21.5478H24.3749V5.47258H1.62491V21.5478Z" fill="black"/>
<path d="M13 15.6073C12.614 15.6073 12.2288 15.5184 11.8779 15.3407L0.439711 9.5588C0.0407123 9.35724 -0.115251 8.87795 0.091134 8.4892C0.297524 8.09955 0.787379 7.94724 1.18639 8.14879L12.6255 13.9316C12.862 14.0513 13.1415 14.0513 13.3754 13.9316L24.8136 8.14879C25.2133 7.94563 25.7025 8.09955 25.9088 8.4892C26.1152 8.87796 25.9593 9.35726 25.5612 9.5588L14.1221 15.3416C13.7711 15.5186 13.3859 15.6075 13 15.6075L13 15.6073Z" fill="black"/>
</svg>
