<svg width="27" height="28" viewBox="0 0 27 28" fill="none" xmlns="http://www.w3.org/2000/svg">
<path d="M16.6072 27.5282C15.57 27.5282 14.5272 27.2197 13.624 26.5902C9.05477 23.4047 5.123 19.4731 1.93692 14.9031C0.487142 12.8239 0.738223 10.0128 2.53301 8.21812L4.5586 6.19253C5.35046 5.40067 6.63784 5.40067 7.42882 6.19253L11.2493 10.013C12.0412 10.8042 12.0412 12.0923 11.2493 12.8833L9.64599 14.4873C9.54283 14.5905 9.52742 14.7114 9.52742 14.7739C9.52742 14.8365 9.54284 14.9574 9.64599 15.0605L13.4665 18.8818C13.6241 19.0386 13.8824 19.0386 14.0399 18.8818L15.644 17.2778C16.4342 16.4859 17.7223 16.4866 18.5134 17.277L22.3347 21.0983C23.1259 21.8895 23.1259 23.1766 22.3354 23.9678L20.3089 25.9934C19.295 27.0072 17.9549 27.5285 16.6073 27.5285L16.6072 27.5282ZM5.99352 7.22126C5.88964 7.22126 5.78558 7.26115 5.7069 7.33983L3.68117 9.36556C2.44331 10.6025 2.27038 12.5412 3.26856 13.9731C6.34432 18.3857 10.1406 22.1817 14.5524 25.2569C15.9842 26.2551 17.9237 26.0812 19.1599 24.8435L21.1855 22.8187C21.343 22.6611 21.343 22.4028 21.1855 22.2453L17.3649 18.4248C17.2065 18.2679 16.95 18.2679 16.7915 18.4248L15.1875 20.0288C14.3956 20.8207 13.1082 20.82 12.3173 20.0288L8.49675 16.2083C8.11332 15.8248 7.90228 15.3149 7.90228 14.7732C7.90228 14.2315 8.11349 13.7213 8.49675 13.3372L10.1001 11.7338C10.2033 11.6307 10.2187 11.5098 10.2187 11.4472C10.2187 11.3847 10.2033 11.2637 10.1001 11.1606L6.28028 7.33988C6.2016 7.2612 6.09754 7.22132 5.99365 7.22132L5.99352 7.22126Z" fill="black"/>
<path d="M26.1859 15.3357C25.7368 15.3357 25.3737 14.9719 25.3737 14.5235C25.3737 8.25346 20.2732 3.15294 14.0031 3.15294C13.5548 3.15294 13.1909 2.78909 13.1909 2.34075C13.1909 1.89241 13.5548 1.52856 14.0031 1.52856C21.1684 1.52856 26.9981 7.3582 26.9981 14.5235C26.9981 14.9719 26.6349 15.3357 26.1859 15.3357Z" fill="black"/>
<path d="M22.9372 15.3355C22.4881 15.3355 22.125 14.9717 22.125 14.5233C22.125 10.0449 18.4815 6.40147 14.0031 6.40147C13.5548 6.40147 13.1909 6.03762 13.1909 5.58929C13.1909 5.14095 13.5548 4.7771 14.0031 4.7771C19.3775 4.7771 23.7493 9.14912 23.7493 14.5233C23.7493 14.9717 23.3862 15.3355 22.9372 15.3355Z" fill="black"/>
<path d="M19.6884 15.3353C19.2393 15.3353 18.8762 14.9715 18.8762 14.5231C18.8762 11.8357 16.6906 9.65001 14.0031 9.65001C13.5548 9.65001 13.1909 9.28616 13.1909 8.83782C13.1909 8.38948 13.5548 8.02563 14.0031 8.02563C17.5856 8.02563 20.5006 10.9406 20.5006 14.5231C20.5006 14.9715 20.1375 15.3353 19.6884 15.3353Z" fill="black"/>
</svg>
