<svg width="40" height="40" viewBox="0 0 40 40" fill="none" xmlns="http://www.w3.org/2000/svg">
<path d="M20.0003 27.9999C16.2374 27.9999 12.6526 25.6779 9.34445 21.0978C8.88518 20.4618 8.88518 19.5379 9.34445 18.9029C12.6526 14.322 16.2373 12 20.0003 12C23.7633 12 27.3488 14.322 30.6561 18.9021C31.1145 19.539 31.1145 20.462 30.657 21.0979C27.3489 25.678 23.7631 28 20.0004 28L20.0003 27.9999ZM10.0649 19.5211C9.86789 19.7942 9.86789 20.2072 10.0649 20.48C13.1897 24.806 16.5327 26.9998 20.0003 26.9998C23.4679 26.9998 26.811 24.8059 29.9364 20.4788C30.1325 20.2057 30.1325 19.7937 29.9355 19.5208C26.8107 15.194 23.4678 12.9998 20.0001 12.9998C16.5325 12.9998 13.1895 15.1936 10.0648 19.5208L10.0649 19.5211Z" fill="#282828"/>
<path d="M20.0002 23.9998C17.9781 23.9998 16.3337 22.2059 16.3337 19.9999C16.3337 17.7939 17.9781 16 20.0002 16C22.0223 16 23.6667 17.7939 23.6667 19.9999C23.6667 22.2059 22.0223 23.9998 20.0002 23.9998ZM20.0002 17C18.4841 17 17.2503 18.346 17.2503 20C17.2503 21.654 18.4841 22.9999 20.0002 22.9999C21.5163 22.9999 22.7501 21.654 22.7501 20C22.7501 18.346 21.5163 17 20.0002 17Z" fill="#282828"/>
</svg>
